:SAMPLES-PER-SECOND 30
:FULLY-SPECIFIED
:DEGREES
127
root  -64.1701 40.9501 -7.8539 -144.725 -88.6839 140.859
RightUpLeg  -8.65948 -8.7597 -3.18943
RightLeg  10.4173 -2.39799 4.86465
RightFoot  3.27831 0.760662 -5.74596
RightToes  1.74622e-010 0 -3.6325e-017
Spine  5.74996 -0.914584 7.72881
Spine1  6.13518 -0.380216 -0.554442
HEad  -19.1566 4.68675 -4.99007
LeftShoulder1  9.03845 -12.2117 -50.2017
LeftArm  -7.72524 17.8284 -29.9038
LeftForeArm  28.7832 -14.428 -4.87042
LeftHand  -0.244104 0.0205437 5.32207
RightShoulder  5.96011 9.36227 40.1762
RightArm  7.00899 -10.7074 34.3242
RightForeArm  1.92603 30.4644 6.55278
RightHand  -0.549952 -0.764953 -13.7739
LeftUpLeg  -18.1495 17.4019 3.20205
LeftLeg  48.0394 5.97265 7.50558
LeftFoot  -4.95431 0.395142 -6.5354
LeftToes  -5.82109e-011 8.55049e-011 -1.09726e-011
128
root  -64.7267 41.0711 -7.85306 -141.949 -88.1142 138.37
RightUpLeg  -7.76811 -8.76418 -3.55277
RightLeg  9.80447 -1.97291 4.6985
RightFoot  2.69718 0.709581 -5.6047
RightToes  1.74622e-010 0 -3.6325e-017
Spine  5.4319 -0.623608 7.60329
Spine1  6.84637 0.0103602 -1.15141
HEad  -20.0472 4.52659 -5.08509
LeftShoulder1  9.10943 -12.2925 -50.3359
LeftArm  -8.69496 19.3173 -29.8507
LeftForeArm  29.2699 -13.3452 -4.939
LeftHand  -0.244104 0.0205437 5.32207
RightShoulder  6.03782 9.44524 40.4631
RightArm  6.98969 -9.34084 33.9685
RightForeArm  2.06254 33.5545 7.35188
RightHand  -0.505334 -1.16155 -13.8032
LeftUpLeg  -17.5324 17.0633 3.04481
LeftLeg  40.1914 5.69931 5.52619
LeftFoot  -6.41869 0.323858 -6.62863
LeftToes  -5.82109e-011 8.55049e-011 -1.09726e-011
129
root  -65.2643 41.139 -7.81246 -145.642 -87.674 142.095
RightUpLeg  -6.9562 -8.78175 -3.78332
RightLeg  9.79608 -1.47618 4.55326
RightFoot  2.03477 0.647101 -5.3914
RightToes  1.74622e-010 0 -3.6325e-017
Spine  5.36508 -0.295358 7.66936
Spine1  7.21674 0.413732 -1.43871
HEad  -20.4772 4.197 -5.16401
LeftShoulder1  9.33301 -12.5357 -50.7837
LeftArm  -9.30043 20.8256 -29.5282
LeftForeArm  29.6879 -12.7397 -4.89503
LeftHand  -0.244104 0.0205437 5.32207
RightShoulder  6.06494 9.54333 40.3291
RightArm  6.76197 -8.88178 33.8409
RightForeArm  1.8585 36.4143 8.17043
RightHand  -0.495856 -1.34997 -14.1547
LeftUpLeg  -15.818 15.6047 3.28064
LeftLeg  31.9267 4.77673 3.5515
LeftFoot  -7.66263 0.263222 -6.7817
LeftToes  -5.82109e-011 8.55049e-011 -1.09726e-011
130
root  -65.7983 41.1583 -7.73102 -157.396 -87.462 153.742
RightUpLeg  -6.1566 -8.70525 -3.6413
RightLeg  10.1461 -1.06406 4.48452
RightFoot  1.09946 0.575011 -5.19945
RightToes  1.74622e-010 0 -3.6325e-017
Spine  5.3079 0.0187672 8.06645
Spine1  7.13021 0.727914 -1.3479
HEad  -19.9449 4.19174 -4.96637
LeftShoulder1  9.58945 -12.8298 -51.2368
LeftArm  -9.73133 22.4974 -29.2643
LeftForeArm  29.7449 -12.4296 -4.8093
LeftHand  -0.244104 0.0205437 5.32207
RightShoulder  6.01829 9.63471 39.6852
RightArm  6.45469 -9.40024 34.1199
RightForeArm  2.18745 38.7172 8.85093
RightHand  -0.471 -1.56786 -14.1769
LeftUpLeg  -13.3911 13.8129 4.00502
LeftLeg  23.9714 3.53379 2.06387
LeftFoot  -8.13804 0.255364 -7.31135
LeftToes  -5.82109e-011 8.55049e-011 -1.09726e-011
131
root  -66.3332 41.1635 -7.61496 -177.618 -87.1727 173.87
RightUpLeg  -5.12442 -8.38582 -3.0368
RightLeg  10.0329 -0.83939 4.51308
RightFoot  0.327139 0.521068 -5.07104
RightToes  1.74622e-010 0 -3.6325e-017
Spine  4.6333 0.11492 8.90791
Spine1  7.7982 0.86238 -1.53575
HEad  -19.5582 4.39922 -4.91834
LeftShoulder1  9.49966 -12.7239 -51.0894
LeftArm  -10.2299 23.7245 -29.4816
LeftForeArm  29.0142 -12.5408 -4.67988
LeftHand  -0.244104 0.0205437 5.32207
RightShoulder  5.96592 9.58999 39.4554
RightArm  6.68724 -9.58309 34.2391
RightForeArm  2.79689 40.303 9.3257
RightHand  -0.404197 -1.99651 -13.6357
LeftUpLeg  -10.7066 12.9672 5.06195
LeftLeg  17.0057 2.57844 1.10479
LeftFoot  -6.32969 0.347375 -7.14995
LeftToes  -5.82109e-011 8.55049e-011 -1.09726e-011
132
root  -66.8399 41.1903 -7.47135 163.623 -86.5763 -167.454
RightUpLeg  -3.78054 -7.91704 -2.29527
RightLeg  9.15636 -0.728425 4.60972
RightFoot  0.11013 0.495539 -4.92832
RightToes  1.74622e-010 0 -3.6325e-017
Spine  4.03574 0.102699 9.80697
Spine1  8.00779 0.931348 -2.03611
HEad  -18.5783 4.80108 -4.72453
LeftShoulder1  9.39967 -12.6659 -50.7381
LeftArm  -10.7577 25.1341 -29.7636
LeftForeArm  27.5636 -12.9254 -4.52097
LeftHand  -0.244104 0.0205437 5.32207
RightShoulder  6.04791 9.64468 39.8595
RightArm  7.19876 -10.0651 33.7753
RightForeArm  3.03829 41.1123 9.58166
RightHand  -0.377957 -2.14379 -13.3012
LeftUpLeg  -8.37446 12.1234 6.23324
LeftLeg  12.3195 3.3382 0.388944
LeftFoot  -2.51475 0.406827 -5.15265
LeftToes  -5.82109e-011 8.55049e-011 -1.09726e-011
133
root  -67.2867 41.2437 -7.32519 154.508 -86.1895 -158.509
RightUpLeg  -2.41368 -7.58423 -1.96316
RightLeg  8.23532 -0.734625 4.6084
RightFoot  0.0727156 0.465642 -4.64797
RightToes  1.74622e-010 0 -3.6325e-017
Spine  4.30452 -0.103821 10.2155
Spine1  7.06285 0.948322 -3.03696
HEad  -17.3895 5.09593 -3.9841
LeftShoulder1  9.20308 -12.6841 -49.6322
LeftArm  -11.4915 26.5618 -30.1942
LeftForeArm  26.4225 -13.3308 -4.31118
LeftHand  -0.244104 0.0205437 5.32207
RightShoulder  6.42088 9.90956 41.6332
RightArm  7.6597 -10.9163 32.3407
RightForeArm  3.01212 40.7495 9.46269
RightHand  -0.463023 -1.4947 -13.6723
LeftUpLeg  -6.82785 10.3261 6.94728
LeftLeg  10.4456 5.43999 -0.0864008
LeftFoot  0.557913 0.26206 -2.50412
LeftToes  -5.82109e-011 8.55049e-011 -1.09726e-011
134
root  -67.68 41.3303 -7.2168 153.766 -86.4493 -157.925
RightUpLeg  -1.28777 -7.51484 -2.24673
RightLeg  7.62434 -0.912657 4.36515
RightFoot  -0.0780058 0.412561 -4.18366
RightToes  1.74622e-010 0 -3.6325e-017
Spine  4.4207 -0.245776 8.73859
Spine1  7.13601 0.565526 -2.181
HEad  -17.4578 5.34082 -3.74942
LeftShoulder1  8.99827 -12.4229 -49.3206
LeftArm  -12.5866 26.2525 -29.9824
LeftForeArm  25.6843 -13.6977 -4.03297
LeftHand  -0.244104 0.0205437 5.32207
RightShoulder  6.59971 9.97537 42.6483
RightArm  7.5361 -11.0666 31.4257
RightForeArm  3.80434 38.4972 8.68859
RightHand  -0.604404 -0.390412 -14.0463
LeftUpLeg  -5.67349 9.12132 6.78374
LeftLeg  9.61273 6.41573 -0.245115
LeftFoot  1.39078 0.130894 -1.23665
LeftToes  -5.82109e-011 8.55049e-011 -1.09726e-011
135
root  -68.0603 41.4427 -7.14736 160.767 -86.9449 -164.711
RightUpLeg  -0.60426 -7.54432 -2.86681
RightLeg  7.01536 -1.10925 3.98
RightFoot  -0.158278 0.351893 -3.60272
RightToes  1.74622e-010 0 -3.6325e-017
Spine  4.02053 -0.134019 7.04816
Spine1  7.20301 0.524359 -1.76581
HEad  -17.4923 5.16146 -3.1522
LeftShoulder1  8.54307 -12.0694 -47.8753
LeftArm  -14.472 25.6134 -29.8537
LeftForeArm  25.2475 -14.0387 -3.59941
LeftHand  -0.244104 0.0205437 5.32207
RightShoulder  6.70618 10.0181 43.2349
RightArm  5.90177 -12.0701 30.959
RightForeArm  5.63908 34.8648 7.50695
RightHand  -0.679615 0.406879 -13.6732
LeftUpLeg  -4.36612 7.92199 6.41099
LeftLeg  7.76875 7.28678 -0.979265
LeftFoot  1.33947 0.142248 -1.352
LeftToes  -5.82109e-011 8.55049e-011 -1.09726e-011
136
root  -68.4494 41.554 -7.06665 171.223 -87.0815 -174.425
RightUpLeg  -0.338643 -7.4906 -3.41732
RightLeg  6.03216 -1.12428 3.67064
RightFoot  -0.0222723 0.300297 -3.0295
RightToes  1.74622e-010 0 -3.6325e-017
Spine  2.81248 0.217485 6.2453
Spine1  7.37623 0.926302 -2.27439
HEad  -17.124 4.6209 -2.69047
LeftShoulder1  7.88544 -11.4906 -45.8518
LeftArm  -16.5977 24.7718 -29.0916
LeftForeArm  24.4582 -14.4989 -3.13647
LeftHand  -0.244104 0.0205437 5.32207
RightShoulder  6.5909 9.86761 42.9489
RightArm  3.19116 -13.5525 30.4532
RightForeArm  7.06683 30.674 6.31824
RightHand  -0.715588 1.01178 -13.0807
LeftUpLeg  -3.07053 6.81957 6.24898
LeftLeg  4.87865 8.48321 -2.40327
LeftFoot  1.87953 0.171393 -1.58012
LeftToes  -5.82109e-011 8.55049e-011 -1.09726e-011
137
root  -68.828 41.6372 -6.94441 178.386 -87.034 179.366
RightUpLeg  -0.194737 -7.40911 -3.82459
RightLeg  4.80939 -1.08622 3.50195
RightFoot  0.0758938 0.255422 -2.54735
RightToes  1.74622e-010 0 -3.6325e-017
Spine  1.37861 0.513504 6.15187
Spine1  7.6203 1.32026 -3.03348
HEad  -16.6131 4.07351 -2.78696
LeftShoulder1  7.11516 -10.5837 -43.9487
LeftArm  -18.2566 23.4595 -27.0901
LeftForeArm  23.3921 -14.8784 -2.79231
LeftHand  -0.244104 0.0205437 5.32207
RightShoulder  6.25893 9.50876 41.8462
RightArm  0.699532 -14.5814 28.8962
RightForeArm  6.33062 26.4309 5.32379
RightHand  -0.832319 1.93843 -13.3143
LeftUpLeg  -2.22759 6.40359 6.11321
LeftLeg  2.41522 9.09764 -3.67288
LeftFoot  2.52085 0.160637 -1.43822
LeftToes  -5.82109e-011 8.55049e-011 -1.09726e-011
138
root  -69.1668 41.6885 -6.80877 -175.628 -87.3103 174.173
RightUpLeg  0.049562 -7.43474 -4.24058
RightLeg  3.75878 -1.29752 3.38817
RightFoot  -0.056161 0.212744 -2.15504
RightToes  1.74622e-010 0 -3.6325e-017
Spine  0.724731 0.483558 6.35248
Spine1  6.74074 1.50176 -4.26929
HEad  -15.7147 3.63696 -2.5995
LeftShoulder1  6.24842 -9.73092 -40.8875
LeftArm  -19.3935 22.6328 -24.6531
LeftForeArm  22.5202 -14.814 -2.50614
LeftHand  -0.244104 0.0205437 5.32207
RightShoulder  6.01215 9.27244 40.8711
RightArm  -1.62226 -15.6232 25.5597
RightForeArm  3.87424 22.2456 4.76427
RightHand  -1.01292 2.94728 -14.2741
LeftUpLeg  -1.86914 6.41181 5.74544
LeftLeg  1.04772 8.84068 -4.24588
LeftFoot  2.48267 0.153963 -1.36105
LeftToes  -5.82109e-011 8.55049e-011 -1.09726e-011
139
root  -69.4557 41.7157 -6.69423 -166.872 -87.832 166.026
RightUpLeg  0.193214 -7.53561 -4.66485
RightLeg  3.23244 -1.72512 3.26274
RightFoot  -0.315727 0.174002 -1.82397
RightToes  1.74622e-010 0 -3.6325e-017
Spine  0.50612 0.216452 5.94253
Spine1  5.61636 1.29811 -4.83111
HEad  -15.0607 3.47397 -2.24224
LeftShoulder1  5.39821 -8.96531 -37.1551
LeftArm  -20.099 22.0981 -21.9523
LeftForeArm  21.6558 -14.4103 -2.22649
LeftHand  -0.244104 0.0205437 5.32207
RightShoulder  5.65821 8.97069 39.2532
RightArm  -6.05324 -16.1615 21.4219
RightForeArm  2.83715 17.7972 5.10451
RightHand  -1.1117 3.35518 -14.935
LeftUpLeg  -1.7422 6.05377 5.20208
LeftLeg  0.185837 8.63708 -4.37153
LeftFoot  2.25751 0.156894 -1.43337
LeftToes  -5.82109e-011 8.55049e-011 -1.09726e-011
140
root  -69.7026 41.7315 -6.59539 -158.167 -88.1593 157.861
RightUpLeg  0.0917173 -7.59141 -4.96685
RightLeg  3.14224 -2.03676 3.13728
RightFoot  -0.516492 0.143561 -1.55157
RightToes  1.74622e-010 0 -3.6325e-017
Spine  0.328753 0.00880024 4.9535
Spine1  4.92885 0.934522 -4.29144
HEad  -14.8816 3.48072 -2.10013
LeftShoulder1  4.66023 -8.16821 -33.8622
LeftArm  -20.2923 21.4204 -18.5779
LeftForeArm  20.803 -13.9381 -1.99814
LeftHand  -0.244104 0.0205437 5.32207
RightShoulder  4.98671 8.26485 36.3633
RightArm  -11.995 -15.8101 17.5519
RightForeArm  2.63177 13.3696 5.25996
RightHand  -1.08017 3.14074 -14.865
LeftUpLeg  -1.7239 5.63858 4.69536
LeftLeg  -0.459279 8.71407 -4.33312
LeftFoot  2.38045 0.146061 -1.33462
LeftToes  -5.82109e-011 8.55049e-011 -1.09726e-011
141
root  -69.9231 41.7422 -6.49265 -155.637 -88.2326 155.701
RightUpLeg  0.03547 -7.59163 -5.13236
RightLeg  3.15378 -2.1264 3.05351
RightFoot  -0.662463 0.11954 -1.32649
RightToes  1.74622e-010 0 -3.6325e-017
Spine  0.549432 -0.0576543 4.31257
Spine1  4.02301 0.752195 -3.87768
HEad  -14.6222 3.43525 -1.91827
LeftShoulder1  3.98183 -7.35572 -30.5831
LeftArm  -19.9544 20.6837 -14.864
LeftForeArm  19.9934 -13.3823 -1.85423
LeftHand  -0.244104 0.0205437 5.32207
RightShoulder  4.21232 7.30661 33.0332
RightArm  -16.2077 -15.1348 13.6915
RightForeArm  0.783467 9.69816 4.64234
RightHand  -1.02883 2.94886 -14.491
LeftUpLeg  -1.77591 5.40992 4.3846
LeftLeg  -0.540314 8.90328 -4.23327
LeftFoot  2.38203 0.11447 -1.07071
LeftToes  -5.82109e-011 8.55049e-011 -1.09726e-011
